<svg width="28" height="28" viewBox="0 0 28 28" fill="none" xmlns="http://www.w3.org/2000/svg">
<path d="M12.8333 19.8333H8.16667C6.55278 19.8333 5.17728 19.2644 4.04017 18.1265C2.90306 16.9886 2.33411 15.6131 2.33334 14C2.33256 12.3869 2.9015 11.0114 4.04017 9.87349C5.17884 8.7356 6.55434 8.16666 8.16667 8.16666H12.8333V10.5H8.16667C7.19445 10.5 6.36806 10.8403 5.6875 11.5208C5.00695 12.2014 4.66667 13.0278 4.66667 14C4.66667 14.9722 5.00695 15.7986 5.6875 16.4792C6.36806 17.1597 7.19445 17.5 8.16667 17.5H12.8333V19.8333ZM9.33334 15.1667V12.8333H18.6667V15.1667H9.33334ZM15.1667 19.8333V17.5H19.8333C20.8056 17.5 21.6319 17.1597 22.3125 16.4792C22.9931 15.7986 23.3333 14.9722 23.3333 14C23.3333 13.0278 22.9931 12.2014 22.3125 11.5208C21.6319 10.8403 20.8056 10.5 19.8333 10.5H15.1667V8.16666H19.8333C21.4472 8.16666 22.8231 8.7356 23.961 9.87349C25.0989 11.0114 25.6674 12.3869 25.6667 14C25.6659 15.6131 25.0969 16.989 23.9598 18.1277C22.8227 19.2663 21.4472 19.8349 19.8333 19.8333H15.1667Z" fill="#222222"/>
</svg>
