<svg width="28" height="28" viewBox="0 0 28 28" fill="none" xmlns="http://www.w3.org/2000/svg">
<g clip-path="url(#clip0_52_12)">
<path fill-rule="evenodd" clip-rule="evenodd" d="M10.0408 15.8676L14.0028 18.5766L17.822 15.9418L26.383 24.388C26.1576 24.4608 25.9168 24.5 25.6662 24.5H2.3338C2.0258 24.5 1.7318 24.4398 1.4616 24.332L10.0408 15.8676ZM28 8.9264V22.1662C28 22.512 27.9244 22.8396 27.79 23.135L19.3984 14.8554L28 8.9264ZM1.32104e-06 9.0006L8.4588 14.7854L0.148401 22.9866C0.0499754 22.7243 -0.000297127 22.4464 1.32104e-06 22.1662V9.0006ZM25.6662 3.5C26.9542 3.5 28 4.5444 28 5.8338V6.6542L13.9972 16.3072L1.32104e-06 6.734V5.8338C1.32104e-06 4.5458 1.0444 3.5 2.3338 3.5H25.6662Z" fill="#222222"/>
</g>
<defs>
<clipPath id="clip0_52_12">
<rect width="28" height="28" fill="white"/>
</clipPath>
</defs>
</svg>
