<svg width="28" height="28" viewBox="0 0 28 28" fill="none" xmlns="http://www.w3.org/2000/svg">
<path d="M14 14C12.7167 14 11.6181 13.543 10.7042 12.6292C9.79028 11.7153 9.33334 10.6167 9.33334 9.33332C9.33334 8.04999 9.79028 6.95138 10.7042 6.03749C11.6181 5.1236 12.7167 4.66666 14 4.66666C15.2833 4.66666 16.3819 5.1236 17.2958 6.03749C18.2097 6.95138 18.6667 8.04999 18.6667 9.33332C18.6667 10.6167 18.2097 11.7153 17.2958 12.6292C16.3819 13.543 15.2833 14 14 14ZM4.66667 23.3333V20.0667C4.66667 19.4055 4.83701 18.7981 5.17767 18.2443C5.51834 17.6905 5.97023 17.2674 6.53334 16.975C7.73889 16.3722 8.96389 15.9203 10.2083 15.6193C11.4528 15.3183 12.7167 15.1674 14 15.1667C15.2833 15.1659 16.5472 15.3168 17.7917 15.6193C19.0361 15.9219 20.2611 16.3738 21.4667 16.975C22.0306 17.2667 22.4828 17.6898 22.8235 18.2443C23.1642 18.7989 23.3341 19.4063 23.3333 20.0667V23.3333H4.66667Z" fill="#222222"/>
</svg>
