<svg width="28" height="28" viewBox="0 0 28 28" fill="none" xmlns="http://www.w3.org/2000/svg">
<path d="M22.1667 4.66668H21V3.50001C21 2.85834 20.475 2.33334 19.8333 2.33334C19.1917 2.33334 18.6667 2.85834 18.6667 3.50001V4.66668H9.33333V3.50001C9.33333 2.85834 8.80833 2.33334 8.16667 2.33334C7.525 2.33334 7 2.85834 7 3.50001V4.66668H5.83333C4.53833 4.66668 3.51167 5.71668 3.51167 7.00001L3.5 23.3333C3.5 23.9522 3.74583 24.5457 4.18342 24.9833C4.621 25.4208 5.21449 25.6667 5.83333 25.6667H22.1667C23.45 25.6667 24.5 24.6167 24.5 23.3333V7.00001C24.5 5.71668 23.45 4.66668 22.1667 4.66668ZM22.1667 22.1667C22.1667 22.8083 21.6417 23.3333 21 23.3333H7C6.35833 23.3333 5.83333 22.8083 5.83333 22.1667V10.5H22.1667V22.1667ZM8.16667 12.8333H10.5V15.1667H8.16667V12.8333ZM12.8333 12.8333H15.1667V15.1667H12.8333V12.8333ZM17.5 12.8333H19.8333V15.1667H17.5V12.8333Z" fill="#222222"/>
</svg>
