<svg width="119" height="79" viewBox="0 0 119 79" fill="none" xmlns="http://www.w3.org/2000/svg">
<path d="M15.168 53.336C12.704 53.336 10.496 52.936 8.544 52.136C6.592 51.336 5.024 50.152 3.84 48.584C2.688 47.016 2.08 45.128 2.016 42.92H10.752C10.88 44.168 11.312 45.128 12.048 45.8C12.784 46.44 13.744 46.76 14.928 46.76C16.144 46.76 17.104 46.488 17.808 45.944C18.512 45.368 18.864 44.584 18.864 43.592C18.864 42.76 18.576 42.072 18 41.528C17.456 40.984 16.768 40.536 15.936 40.184C15.136 39.832 13.984 39.432 12.48 38.984C10.304 38.312 8.528 37.64 7.152 36.968C5.776 36.296 4.592 35.304 3.6 33.992C2.608 32.68 2.112 30.968 2.112 28.856C2.112 25.72 3.248 23.272 5.52 21.512C7.792 19.72 10.752 18.824 14.4 18.824C18.112 18.824 21.104 19.72 23.376 21.512C25.648 23.272 26.864 25.736 27.024 28.904H18.144C18.08 27.816 17.68 26.968 16.944 26.36C16.208 25.72 15.264 25.4 14.112 25.4C13.12 25.4 12.32 25.672 11.712 26.216C11.104 26.728 10.8 27.48 10.8 28.472C10.8 29.56 11.312 30.408 12.336 31.016C13.36 31.624 14.96 32.28 17.136 32.984C19.312 33.72 21.072 34.424 22.416 35.096C23.792 35.768 24.976 36.744 25.968 38.024C26.96 39.304 27.456 40.952 27.456 42.968C27.456 44.888 26.96 46.632 25.968 48.2C25.008 49.768 23.6 51.016 21.744 51.944C19.888 52.872 17.696 53.336 15.168 53.336ZM45.9472 25.928C49.0832 25.928 51.5792 26.952 53.4353 29C55.3233 31.016 56.2673 33.8 56.2673 37.352V53H48.1073V38.456C48.1073 36.664 47.6432 35.272 46.7152 34.28C45.7873 33.288 44.5392 32.792 42.9712 32.792C41.4032 32.792 40.1552 33.288 39.2273 34.28C38.2992 35.272 37.8352 36.664 37.8352 38.456V53H29.6272V26.216H37.8352V29.768C38.6672 28.584 39.7872 27.656 41.1952 26.984C42.6032 26.28 44.1872 25.928 45.9472 25.928ZM57.459 39.56C57.459 36.808 57.971 34.392 58.995 32.312C60.051 30.232 61.475 28.632 63.267 27.512C65.059 26.392 67.059 25.832 69.267 25.832C71.155 25.832 72.803 26.216 74.211 26.984C75.651 27.752 76.755 28.76 77.523 30.008V26.216H85.731V53H77.523V49.208C76.723 50.456 75.603 51.464 74.163 52.232C72.755 53 71.107 53.384 69.219 53.384C67.043 53.384 65.059 52.824 63.267 51.704C61.475 50.552 60.051 48.936 58.995 46.856C57.971 44.744 57.459 42.312 57.459 39.56ZM77.523 39.608C77.523 37.56 76.947 35.944 75.795 34.76C74.675 33.576 73.299 32.984 71.667 32.984C70.035 32.984 68.643 33.576 67.491 34.76C66.371 35.912 65.811 37.512 65.811 39.56C65.811 41.608 66.371 43.24 67.491 44.456C68.643 45.64 70.035 46.232 71.667 46.232C73.299 46.232 74.675 45.64 75.795 44.456C76.947 43.272 77.523 41.656 77.523 39.608ZM96.9971 30.008C97.7971 28.76 98.9011 27.752 100.309 26.984C101.717 26.216 103.365 25.832 105.253 25.832C107.461 25.832 109.461 26.392 111.253 27.512C113.045 28.632 114.453 30.232 115.477 32.312C116.533 34.392 117.061 36.808 117.061 39.56C117.061 42.312 116.533 44.744 115.477 46.856C114.453 48.936 113.045 50.552 111.253 51.704C109.461 52.824 107.461 53.384 105.253 53.384C103.397 53.384 101.749 53 100.309 52.232C98.9011 51.464 97.7971 50.472 96.9971 49.256V65.768H88.7891V26.216H96.9971V30.008ZM108.709 39.56C108.709 37.512 108.133 35.912 106.981 34.76C105.861 33.576 104.469 32.984 102.805 32.984C101.173 32.984 99.7811 33.576 98.6291 34.76C97.5091 35.944 96.9491 37.56 96.9491 39.608C96.9491 41.656 97.5091 43.272 98.6291 44.456C99.7811 45.64 101.173 46.232 102.805 46.232C104.437 46.232 105.829 45.64 106.981 44.456C108.133 43.24 108.709 41.608 108.709 39.56Z" fill="#FFD223"/>
<path d="M34.306 69.234C33.1273 69.234 32.07 69.026 31.134 68.61C30.198 68.1767 29.4527 67.596 28.898 66.868C28.3607 66.14 28.066 65.334 28.014 64.45H31.68C31.7493 65.0047 32.018 65.464 32.486 65.828C32.9713 66.192 33.5693 66.374 34.28 66.374C34.9733 66.374 35.5107 66.2353 35.892 65.958C36.2907 65.6807 36.49 65.3253 36.49 64.892C36.49 64.424 36.2473 64.0773 35.762 63.852C35.294 63.6093 34.54 63.3493 33.5 63.072C32.4253 62.812 31.5413 62.5433 30.848 62.266C30.172 61.9887 29.5827 61.564 29.08 60.992C28.5947 60.42 28.352 59.6487 28.352 58.678C28.352 57.8807 28.5773 57.1527 29.028 56.494C29.496 55.8353 30.1547 55.3153 31.004 54.934C31.8707 54.5527 32.8847 54.362 34.046 54.362C35.762 54.362 37.1313 54.7953 38.154 55.662C39.1767 56.5113 39.74 57.664 39.844 59.12H36.36C36.308 58.548 36.0653 58.0973 35.632 57.768C35.216 57.4213 34.6527 57.248 33.942 57.248C33.2833 57.248 32.772 57.3693 32.408 57.612C32.0613 57.8547 31.888 58.1927 31.888 58.626C31.888 59.1113 32.1307 59.484 32.616 59.744C33.1013 59.9867 33.8553 60.238 34.878 60.498C35.918 60.758 36.776 61.0267 37.452 61.304C38.128 61.5813 38.7087 62.0147 39.194 62.604C39.6967 63.176 39.9567 63.9387 39.974 64.892C39.974 65.724 39.74 66.4693 39.272 67.128C38.8213 67.7867 38.1627 68.3067 37.296 68.688C36.4467 69.052 35.45 69.234 34.306 69.234ZM55.442 54.596L46.524 75.812H42.65L45.77 68.636L39.998 54.596H44.08L47.798 64.658L51.568 54.596H55.442ZM64.0862 54.388C65.8022 54.388 67.1888 54.934 68.2462 56.026C69.3035 57.1007 69.8322 58.6087 69.8322 60.55V69H66.1922V61.044C66.1922 59.9 65.9062 59.0247 65.3342 58.418C64.7622 57.794 63.9822 57.482 62.9942 57.482C61.9888 57.482 61.1915 57.794 60.6022 58.418C60.0302 59.0247 59.7442 59.9 59.7442 61.044V69H56.1042V54.596H59.7442V56.39C60.2295 55.766 60.8448 55.2807 61.5902 54.934C62.3528 54.57 63.1848 54.388 64.0862 54.388ZM71.0576 61.798C71.0576 60.3073 71.3609 59.0073 71.9676 57.898C72.5743 56.7713 73.4149 55.9047 74.4896 55.298C75.5643 54.674 76.7949 54.362 78.1816 54.362C79.9669 54.362 81.4403 54.8127 82.6016 55.714C83.7803 56.598 84.5689 57.846 84.9676 59.458H81.0416C80.8336 58.834 80.4783 58.3487 79.9756 58.002C79.4903 57.638 78.8836 57.456 78.1556 57.456C77.1156 57.456 76.2923 57.8373 75.6856 58.6C75.0789 59.3453 74.7756 60.4113 74.7756 61.798C74.7756 63.1673 75.0789 64.2333 75.6856 64.996C76.2923 65.7413 77.1156 66.114 78.1556 66.114C79.6289 66.114 80.5909 65.4553 81.0416 64.138H84.9676C84.5689 65.698 83.7803 66.9373 82.6016 67.856C81.4229 68.7747 79.9496 69.234 78.1816 69.234C76.7949 69.234 75.5643 68.9307 74.4896 68.324C73.4149 67.7 72.5743 66.8333 71.9676 65.724C71.3609 64.5973 71.0576 63.2887 71.0576 61.798Z" fill="white"/>
</svg>
